PathFileType	4	(X/Y/Z)	marker_experimental.trc																																																																																																																
DataRate	CameraRate	NumFrames	NumMarkers	Units	OrigDataRate	OrigDataStartFrame	OrigNumFrames																																																																																																												
200	200	5	38	mm	200	376	600																																																																																																												
Frame#	Time	C7			T10			CLAV			STRN			RBAK			LASI			RASI			SACR			LT1			LT2			LT3			LS1			LS2			LS3			LHEE			LTOE			RT1			RT2			RT3			RS1			RS2			RS3			RHEE			RTOE			LKNE			LKNM			LANK			LANM			RKNM			RKNE			RANM			RANK			LAJC			LKJC			RAJC			RKJC			RHJC			LHJC		
		X1	Y1	Z1	X2	Y2	Z2	X3	Y3	Z3	X4	Y4	Z4	X5	Y5	Z5	X6	Y6	Z6	X7	Y7	Z7	X8	Y8	Z8	X9	Y9	Z9	X10	Y10	Z10	X11	Y11	Z11	X12	Y12	Z12	X13	Y13	Z13	X14	Y14	Z14	X15	Y15	Z15	X16	Y16	Z16	X17	Y17	Z17	X18	Y18	Z18	X19	Y19	Z19	X20	Y20	Z20	X21	Y21	Z21	X22	Y22	Z22	X23	Y23	Z23	X24	Y24	Z24	X25	Y25	Z25	X26	Y26	Z26	X27	Y27	Z27	X28	Y28	Z28	X29	Y29	Z29	X30	Y30	Z30	X31	Y31	Z31	X32	Y32	Z32	X33	Y33	Z33	X34	Y34	Z34	X35	Y35	Z35	X36	Y36	Z36	X37	Y37	Z37	X38	Y38	Z38
																																																																																																																			
376	1.875	-404.754944	994.942566	793.990295	-395.227722	820.454102	759.500427	-407.413635	952.228333	910.748352	-401.624176	822.317444	952.192322	-491.564789	936.411194	764.810303	-289.79718	654.160461	894.150513	-504.497559	650.595947	894.152588	-396.330933	699.490906	743.540405	-228.20961	485.172028	881.251709	-224.229828	396.60437	838.281921	-233.322128	411.338318	981.085815	-220.358109	236.740158	862.395935	-209.002213	204.47673	744.315979	-237.303589	140.792892	870.169861	-282.735352	59.364128	708.595642	-274.900604	49.278152	852.913452	-551.251404	489.277557	864.474365	-534.877625	402.901031	825.044556	-557.59906	423.513031	963.114929	-547.797485	253.00589	894.708313	-568.473083	220.184082	777.625244	-535.322815	157.942474	902.0896	-494.818268	57.333191	733.316895	-492.074188	49.576931	875.610291	-231.881531	329.893768	901.782532	-326.933929	306.276428	933.251404	-251.733551	43.446102	754.934753	-319.153229	40.435959	760.764282	-431.054718	320.03125	936.772705	-536.147888	325.313416	913.828979	-455.036896	56.737225	782.676025	-527.901489	44.66843	780.414246	-285.44339	41.94103	757.849518	-279.40773	318.085098	917.516968	-491.469192	50.702827	781.545136	-483.601303	322.672333	925.300842	-474.341496	593.459089	826.07753	-318.041258	596.054028	826.076019
377	1.88	-404.773254	994.94696	794.023132	-395.247681	820.456299	759.531677	-407.434814	952.21283	910.776428	-401.654083	822.313293	952.223389	-491.571594	936.414978	764.836182	-289.816772	654.168884	894.178284	-504.521484	650.595581	894.194946	-396.356842	699.500916	743.578857	-228.230484	485.164551	881.273499	-224.248215	396.603607	838.30542	-233.337555	411.340149	981.105835	-220.367966	236.738953	862.408997	-209.010696	204.483627	744.326477	-237.293747	140.798431	870.172607	-282.741241	59.387218	708.498291	-274.904114	49.274487	852.920349	-551.276978	489.279846	864.509949	-534.912048	402.894287	825.070129	-557.608032	423.517548	963.136536	-547.813965	252.999268	894.729675	-568.492188	220.165375	777.632568	-535.33313	157.925964	902.089966	-494.820709	57.33482	733.319519	-492.078918	49.578545	875.612915	-231.893478	329.884644	901.805298	-326.947601	306.272522	933.281006	-251.735199	43.45079	754.933594	-319.154236	40.43985	760.760803	-431.074677	320.007385	936.755859	-536.162964	325.303253	913.842529	-455.049866	56.755684	782.682617	-527.90509	44.670944	780.414307	-285.444718	41.94532	757.847198	-279.42054	318.078583	917.543152	-491.477478	50.713314	781.548462	-483.61882	322.655319	925.299194	-474.36699	593.461409	826.115372	-318.063902	596.062741	826.103242
378	1.885	-404.788025	994.949402	794.055603	-395.265503	820.458069	759.564026	-407.4552	952.194885	910.803833	-401.680756	822.313538	952.251282	-491.575134	936.42041	764.861877	-289.836578	654.179016	894.206238	-504.54541	650.595886	894.237549	-396.383209	699.512939	743.615906	-228.253647	485.157501	881.296753	-224.265213	396.59967	838.332153	-233.351059	411.343475	981.12207	-220.37735	236.736389	862.423462	-209.010971	204.493225	744.337952	-237.292679	140.79538	870.177368	-282.681549	59.389862	708.608032	-274.907837	49.271469	852.927734	-551.299194	489.278046	864.541321	-534.945312	402.886322	825.097046	-557.616882	423.514343	963.163391	-547.833984	252.989639	894.76355	-568.51123	220.146606	777.637268	-535.340149	157.902618	902.087341	-494.819305	57.336029	733.324646	-492.083588	49.580788	875.614685	-231.90274	329.879517	901.826416	-326.960327	306.269653	933.311646	-251.736557	43.45433	754.933044	-319.154144	40.44648	760.757507	-431.094421	319.992798	936.762024	-536.176758	325.295319	913.858521	-455.054382	56.757374	782.697083	-527.90686	44.67347	780.414612	-285.445351	41.950405	757.845276	-279.431534	318.074585	917.569031	-491.480621	50.715422	781.555848	-483.635589	322.644059	925.310272	-474.392267	593.464859	826.152949	-318.08647	596.07334	826.130155
379	1.89	-404.799927	994.950439	794.087708	-395.282227	820.4599	759.596985	-407.474365	952.1745	910.831177	-401.705719	822.316284	952.277466	-491.575409	936.42627	764.887207	-289.857635	654.191101	894.23645	-504.567352	650.59729	894.277649	-396.410095	699.526428	743.651062	-228.278137	485.153503	881.320679	-224.279053	396.595795	838.361694	-233.364868	411.344513	981.135986	-220.385925	236.732895	862.439087	-209.008667	204.499619	744.348816	-237.301987	140.784348	870.182251	-282.553467	59.343849	709.117493	-274.911499	49.270252	852.934998	-551.319458	489.272369	864.569092	-534.9776	402.878326	825.124634	-557.628235	423.502045	963.197266	-547.854919	252.978378	894.796814	-568.529297	220.128906	777.640076	-535.343079	157.882278	902.091919	-494.814331	57.337288	733.332031	-492.088013	49.583893	875.614868	-231.910156	329.878204	901.84906	-326.973114	306.266296	933.341431	-251.737396	43.456921	754.933411	-319.153564	40.455788	760.754822	-431.117645	319.99295	936.812134	-536.18988	325.289642	913.876587	-455.053284	56.74593	782.715759	-527.907166	44.675861	780.415222	-285.44548	41.956355	757.844116	-279.441635	318.07225	917.595245	-491.480225	50.710895	781.565491	-483.653762	322.641296	925.34436	-474.41437	593.470339	826.188793	-318.108001	596.086595	826.1588
380	1.895	-404.809967	994.950562	794.119568	-395.299042	820.462036	759.630249	-407.49295	952.151733	910.859863	-401.730713	822.319031	952.303833	-491.572968	936.431702	764.911926	-289.881287	654.204224	894.270874	-504.585846	650.599915	894.314758	-396.437378	699.540466	743.684387	-228.302094	485.153839	881.344543	-224.287369	396.594391	838.394165	-233.38147	411.340607	981.151001	-220.393433	236.728973	862.455505	-209.013947	204.500305	744.358398	-237.319183	140.768906	870.185852	-282.371338	59.233768	710.098938	-274.914459	49.271431	852.941101	-551.339539	489.264099	864.593811	-535.009277	402.871002	825.151917	-557.643188	423.483368	963.234802	-547.87384	252.966934	894.820007	-568.545837	220.113388	777.642822	-535.343323	157.866943	902.104614	-494.80661	57.339127	733.340698	-492.091827	49.588173	875.613159	-231.916626	329.880035	901.876465	-326.985962	306.262054	933.369019	-251.737457	43.458889	754.934753	-319.153198	40.467377	760.753052	-431.149353	320.013031	936.928894	-536.202637	325.2854	913.896301	-455.050659	56.735012	782.728577	-527.906555	44.678402	780.416016	-285.445327	41.963133	757.843903	-279.451294	318.071044	917.622742	-491.478607	50.706707	781.572296	-483.675995	322.649215	925.412597	-474.431813	593.47838	826.223142	-318.128861	596.102284	826.191195
